<svg width="173" height="73" viewBox="0 0 173 73" fill="none" xmlns="http://www.w3.org/2000/svg">
<path d="M158.658 46.3727C168.549 38.0766 172.059 32.2269 172.059 22.3355C172.059 10.955 165.997 0 147.171 0C128.345 0 122.283 10.955 122.283 24.4626H136.11C136.11 17.0175 138.343 13.8267 147.171 13.8267C155.999 13.8267 158.232 16.8048 158.232 22.3355C158.232 29.3552 153.34 33.1841 143.236 41.161L122.283 58.4976V72.3244H170.995V58.4976H144.725L158.658 46.3727Z" fill="#263238"/>
<path d="M66.7682 36.5876H107.397V22.7609H66.7682V36.5876ZM66.7682 57.8595H107.397V44.0328H66.7682V57.8595Z" fill="#263238"/>
<path d="M32.0044 29.7807L49.8727 13.8268V0.000106812H3.28735V13.8268H30.5153L14.8805 28.7171L19.6667 39.3531H26.8991C34.3443 39.3531 38.1732 41.693 38.1732 48.9254C38.1732 55.8387 35.1951 58.4977 26.0482 58.4977C17.0077 58.4977 13.9233 55.8387 13.9233 48.9254H0.0965576C0.0965576 61.3694 7.75443 72.3244 26.0482 72.3244C44.342 72.3244 51.9999 61.3694 51.9999 49.989C51.9999 35.4178 41.5767 28.7171 32.0044 29.7807Z" fill="#263238"/>
</svg>
